 <svg  version="1.0" xmlns="http://www.w3.org/2000/svg"  width="287.000000pt" height="300.000000pt" viewBox="0 0 287.000000 300.000000"  preserveAspectRatio="xMidYMid meet">  <g transform="translate(0.000000,300.000000) scale(0.100000,-0.100000)" fill="#ffffff" stroke="none"> <path d="M470 2876 c0 -3 22 -42 49 -88 63 -108 296 -528 382 -688 36 -69 80 -138 96 -155 17 -16 66 -48 109 -70 43 -21 151 -79 239 -128 88 -50 209 -117 269 -150 l110 -60 455 13 c251 7 460 14 464 17 4 3 -70 51 -165 107 -95 56 -203 121 -240 143 -36 23 -205 125 -375 226 -169 102 -447 270 -618 373 -170 103 -346 208 -390 234 -44 26 -147 88 -229 138 -145 90 -156 96 -156 88z m100 -73 c0 -5 15 -17 33 -29 17 -11 52 -34 77 -49 25 -16 48 -30 51 -30 3 0 13 -8 23 -17 10 -10 22 -18 27 -18 6 0 7 -5 3 -12 -4 -7 -3 -8 4 -4 10 6 124 -54 158 -83 7 -5 15 -7 18 -4 3 4 6 1 6 -5 0 -7 16 -20 35 -29 19 -9 31 -21 28 -26 -4 -6 0 -8 10 -4 8 3 21 -1 27 -8 7 -8 16 -12 21 -9 5 3 9 1 9 -4 0 -6 19 -20 43 -32 23 -12 65 -35 92 -51 28 -16 56 -31 62 -35 7 -3 10 -10 7 -15 -3 -5 -2 -9 3 -8 4 1 11 0 16 -1 4 -1 10 -3 15 -4 4 -1 33 -18 65 -39 32 -21 78 -47 102 -60 27 -13 43 -27 40 -35 -3 -7 -1 -11 4 -8 11 7 95 -38 204 -109 47 -30 88 -55 92 -55 3 0 26 -13 50 -30 24 -16 46 -30 49 -30 6 0 154 -94 173 -109 6 -6 23 -13 37 -17 14 -3 26 -10 26 -15 0 -5 3 -8 8 -7 13 5 142 -79 134 -87 -4 -4 -1 -5 5 -1 7 4 27 -4 45 -17 18 -14 56 -37 83 -52 28 -15 57 -34 65 -42 25 -23 -5 -33 -110 -33 -52 -1 -123 -3 -157 -6 -38 -3 -64 -1 -68 6 -3 6 -11 8 -16 5 -5 -4 -75 -8 -157 -11 -282 -9 -289 -8 -316 10 -46 30 -601 607 -846 881 -30 33 -84 92 -121 130 -37 39 -78 84 -90 100 -13 17 -26 32 -29 35 -50 49 -72 80 -57 80 9 0 17 -3 17 -7z m100 -160 c12 -16 52 -60 91 -99 38 -40 69 -75 69 -78 0 -4 15 -21 33 -39 17 -18 52 -55 76 -82 65 -74 158 -174 300 -321 203 -210 251 -263 251 -274 0 -6 4 -9 9 -6 12 8 43 -29 34 -39 -5 -4 -3 -5 4 -1 13 7 55 -32 47 -45 -5 -8 -103 46 -115 64 -3 5 -8 8 -10 8 -11 -4 -68 22 -66 29 3 10 -44 52 -51 45 -3 -2 1 -12 9 -21 13 -16 12 -16 -8 -5 -13 6 -23 16 -23 22 0 6 -4 7 -10 4 -12 -7 -52 13 -46 23 3 5 -3 9 -12 9 -35 3 -139 68 -135 83 4 12 3 12 -5 2 -8 -12 -14 -11 -38 1 -47 25 -69 51 -114 134 -99 181 -155 278 -162 281 -4 2 -8 10 -8 18 0 16 -20 56 -33 65 -4 3 -9 15 -10 27 0 11 -4 19 -8 16 -6 -3 -80 135 -107 198 -8 19 19 5 38 -19z"/> <path d="M360 1922 c0 -417 -3 -989 -7 -1270 -4 -307 -3 -512 3 -512 5 0 33 44 63 98 56 101 199 349 378 655 l104 178 -5 67 c-3 37 -8 146 -11 242 -3 96 -8 253 -12 349 l-6 175 -100 155 c-55 86 -157 244 -227 351 -71 107 -136 212 -146 233 -10 20 -21 37 -26 37 -4 0 -8 -341 -8 -758z m65 572 c-2 -19 0 -32 5 -29 5 3 15 -3 22 -15 7 -11 17 -20 21 -20 5 0 0 12 -11 28 -29 42 -34 52 -25 52 14 0 53 -69 47 -83 -3 -8 2 -20 11 -27 8 -7 15 -22 15 -33 0 -11 3 -17 6 -14 10 9 75 -86 70 -100 -3 -8 1 -10 12 -6 9 3 14 2 9 -2 -4 -5 -1 -15 7 -24 8 -9 39 -54 69 -101 31 -47 66 -98 79 -115 76 -96 87 -141 59 -252 -23 -89 -25 -100 -13 -89 7 8 8 12 11 44 4 40 20 -15 21 -73 1 -33 6 -173 12 -312 l9 -252 -47 -78 c-26 -43 -58 -95 -72 -116 -14 -21 -26 -46 -27 -55 -2 -26 -28 -62 -45 -63 -9 0 -11 -2 -3 -5 13 -6 -13 -58 -79 -157 -21 -32 -38 -61 -38 -63 0 -3 -12 -24 -28 -47 -15 -23 -36 -60 -46 -82 -18 -38 -19 -39 -25 -15 -6 21 -9 17 -25 -33 -10 -32 -25 -73 -35 -91 -15 -33 -16 -22 -16 230 0 145 3 264 7 264 4 0 8 206 8 458 1 251 4 561 7 687 7 262 7 265 -2 361 -4 40 -4 120 0 178 6 86 10 105 20 96 7 -6 12 -26 10 -46z"/> <path d="M777 1585 c-10 -38 -24 -92 -32 -120 -8 -27 -30 -111 -50 -185 -20 -74 -75 -263 -122 -420 -47 -157 -87 -292 -88 -300 -2 -8 -4 -15 -5 -15 -1 0 -3 -7 -5 -15 -2 -8 -10 -34 -19 -57 -8 -24 -11 -43 -6 -43 4 0 11 13 15 30 4 16 11 32 16 35 5 4 9 18 9 33 0 22 2 24 11 12 9 -13 10 -12 5 2 -3 10 4 48 15 85 11 37 27 93 36 123 8 30 19 63 24 72 5 10 9 23 9 30 0 12 74 274 87 308 3 8 7 20 8 25 10 40 44 163 49 175 3 8 7 26 10 40 2 14 16 67 31 119 14 51 25 103 23 115 -2 12 -11 -10 -21 -49z"/> <path d="M992 1773 c-11 -25 7 -625 20 -640 6 -7 17 -13 26 -13 8 0 78 40 156 88 78 49 195 122 261 163 167 103 167 102 -12 201 -211 116 -264 141 -276 129 -7 -7 6 -18 39 -35 27 -13 65 -32 84 -42 19 -10 38 -23 42 -28 5 -7 8 -7 8 -1 0 7 3 7 8 0 4 -5 34 -23 67 -40 62 -31 64 -32 105 -65 l25 -20 -27 -24 c-15 -13 -24 -27 -21 -30 4 -3 -1 -6 -9 -6 -16 0 -86 -35 -139 -68 -15 -10 -48 -30 -73 -46 -36 -22 -44 -31 -34 -38 9 -7 6 -8 -11 -4 -24 5 -55 -16 -43 -29 4 -5 2 -5 -5 -1 -14 8 -85 -38 -75 -49 4 -5 2 -5 -5 -1 -7 4 -22 1 -34 -6 -17 -10 -23 -10 -26 0 -3 6 -8 10 -12 8 -4 -3 -8 34 -8 82 -3 386 -2 486 2 490 3 3 32 -7 65 -23 44 -21 63 -26 71 -18 9 9 -7 21 -60 47 -80 41 -97 43 -109 19z"/> <path d="M1457 1267 c-125 -78 -286 -178 -358 -222 l-130 -80 -83 -160 c-46 -88 -117 -223 -158 -300 -112 -210 -187 -355 -182 -355 2 0 69 38 148 84 79 46 163 94 187 106 24 13 125 69 224 125 99 56 207 116 239 134 61 33 320 178 671 376 434 244 573 322 657 365 49 25 88 48 88 53 0 4 -118 7 -262 8 -145 0 -387 2 -538 4 l-275 3 -228 -141z m463 98 c93 -4 121 -3 110 5 -11 9 36 10 185 5 110 -4 223 -6 252 -6 29 1 62 -3 73 -9 14 -7 31 -8 55 -1 36 10 59 -2 27 -14 -9 -3 -19 -6 -22 -6 -3 0 -12 -6 -20 -13 -8 -8 -36 -23 -62 -34 -27 -12 -48 -26 -48 -32 0 -6 -3 -9 -8 -6 -7 4 -47 -20 -191 -111 -28 -18 -51 -31 -51 -29 0 3 39 37 86 75 47 39 80 71 73 71 -6 0 -28 -15 -49 -32 -20 -18 -46 -40 -56 -48 -58 -45 -93 -70 -99 -70 -4 0 -25 -14 -48 -32 -43 -35 -101 -69 -157 -94 -19 -9 -37 -19 -40 -23 -3 -3 -23 -15 -45 -26 -22 -11 -46 -26 -53 -32 -7 -7 -19 -13 -27 -13 -7 0 -15 -3 -17 -7 -6 -15 -129 -73 -140 -67 -6 4 -8 3 -5 -4 7 -10 -46 -46 -123 -84 -19 -10 -42 -22 -50 -28 -39 -26 -340 -188 -422 -226 -31 -15 -58 -33 -60 -41 -2 -8 -53 -41 -115 -73 -62 -32 -140 -75 -173 -94 -33 -19 -60 -33 -60 -29 0 3 -7 0 -15 -7 -17 -14 -19 -8 -6 18 6 9 16 31 24 47 38 79 149 295 152 295 3 0 2 -7 -1 -15 -4 -8 -1 -15 5 -15 6 0 14 12 17 27 4 16 30 73 59 129 28 55 57 116 65 135 26 62 60 103 111 130 52 29 52 29 70 29 5 0 7 5 4 10 -3 6 1 10 9 10 9 0 16 4 16 9 0 5 14 14 30 21 17 7 30 16 30 21 0 5 4 9 9 9 5 0 33 16 63 35 29 19 62 38 73 41 11 4 22 10 25 14 3 4 28 20 55 35 28 16 52 32 55 36 3 3 21 15 40 26 19 10 54 31 77 46 24 15 47 27 53 27 5 0 10 4 10 9 0 13 36 19 85 15 22 -2 96 -6 165 -9z"/> <path d="M2320 1331 c13 -10 13 -12 0 -21 -8 -5 -29 -10 -47 -10 -17 0 -34 -4 -37 -9 -3 -4 -25 -11 -48 -15 -24 -3 -61 -9 -83 -12 -22 -4 -44 -10 -50 -14 -5 -4 -32 -11 -60 -14 -27 -4 -63 -11 -80 -16 -16 -5 -70 -19 -120 -30 -49 -12 -103 -25 -120 -30 -16 -4 -73 -18 -125 -30 -52 -13 -122 -31 -154 -41 -33 -11 -70 -19 -82 -19 -12 0 -27 -7 -34 -15 -10 -12 -7 -13 22 -4 53 15 375 96 473 118 102 23 328 76 517 121 70 16 132 30 138 30 21 0 9 -20 -15 -26 -14 -3 -22 -10 -19 -15 4 -7 84 37 84 46 0 1 -30 3 -67 4 -38 1 -77 4 -88 7 -16 4 -17 3 -5 -5z"/> <path d="M2155 1239 c-82 -21 -276 -70 -430 -108 -154 -38 -272 -70 -263 -70 9 -1 74 13 145 29 322 77 380 91 409 100 17 6 42 10 57 10 14 0 29 5 32 10 3 6 15 10 26 10 20 0 135 33 174 50 37 16 1 9 -150 -31z"/> </g> </svg> 